<mxfile host="app.diagrams.net" agent="Mozilla/5.0 (Windows NT 10.0; Win64; x64) AppleWebKit/537.36 (KHTML, like Gecko) Chrome/133.0.0.0 Safari/537.36" version="26.0.14">
  <diagram name="Page-1" id="MjCRfQ0kYUUl4mVlbqgF">
    <mxGraphModel dx="1760" dy="-164" grid="1" gridSize="10" guides="1" tooltips="1" connect="1" arrows="1" fold="1" page="1" pageScale="1" pageWidth="850" pageHeight="1100" math="0" shadow="0">
      <root>
        <mxCell id="0" />
        <mxCell id="1" parent="0" />
        <mxCell id="mA-dlY1LD11wk8f1rgGa-67" value="" style="shape=internalStorage;whiteSpace=wrap;html=1;backgroundOutline=1;dx=430;dy=50;fontStyle=1;shadow=0;rounded=0;glass=0;labelBackgroundColor=none;fillColor=#D8EAEE;strokeColor=#20787E;strokeWidth=2;" vertex="1" parent="1">
          <mxGeometry x="290" y="1490" width="1140" height="930" as="geometry" />
        </mxCell>
        <mxCell id="mA-dlY1LD11wk8f1rgGa-48" value="" style="ellipse;html=1;shape=endState;fillColor=#000000;strokeColor=#0F8B8D;fontStyle=1;labelBackgroundColor=none;fontColor=#143642;" vertex="1" parent="1">
          <mxGeometry x="444" y="2340" width="30" height="30" as="geometry" />
        </mxCell>
        <mxCell id="mA-dlY1LD11wk8f1rgGa-50" value="Collision Detected?" style="rhombus;strokeWidth=2;whiteSpace=wrap;fontStyle=1;labelBackgroundColor=none;fillColor=#FAE5C7;strokeColor=#0F8B8D;fontColor=#143642;" vertex="1" parent="1">
          <mxGeometry x="850" y="2110" width="157.5" height="141" as="geometry" />
        </mxCell>
        <mxCell id="mA-dlY1LD11wk8f1rgGa-51" value="Move Snake" style="whiteSpace=wrap;strokeWidth=2;fontStyle=1;labelBackgroundColor=none;fillColor=#FAE5C7;strokeColor=#0F8B8D;fontColor=#143642;" vertex="1" parent="1">
          <mxGeometry x="388" y="2040" width="143" height="54" as="geometry" />
        </mxCell>
        <mxCell id="mA-dlY1LD11wk8f1rgGa-52" value="" style="endArrow=classic;html=1;rounded=0;exitX=1;exitY=0.5;exitDx=0;exitDy=0;entryX=0.5;entryY=0;entryDx=0;entryDy=0;fontStyle=1;labelBackgroundColor=none;strokeColor=#A8201A;fontColor=default;" edge="1" parent="1" source="mA-dlY1LD11wk8f1rgGa-51" target="mA-dlY1LD11wk8f1rgGa-50">
          <mxGeometry width="50" height="50" relative="1" as="geometry">
            <mxPoint x="177.5" y="2420" as="sourcePoint" />
            <mxPoint x="766" y="2280" as="targetPoint" />
            <Array as="points">
              <mxPoint x="928" y="2070" />
            </Array>
          </mxGeometry>
        </mxCell>
        <mxCell id="mA-dlY1LD11wk8f1rgGa-53" value="End Game" style="whiteSpace=wrap;strokeWidth=2;fontStyle=1;labelBackgroundColor=none;fillColor=#FAE5C7;strokeColor=#0F8B8D;fontColor=#143642;" vertex="1" parent="1">
          <mxGeometry x="393" y="2230" width="132" height="54" as="geometry" />
        </mxCell>
        <mxCell id="mA-dlY1LD11wk8f1rgGa-54" value="" style="endArrow=classic;html=1;rounded=0;entryX=0.5;entryY=0;entryDx=0;entryDy=0;exitX=0;exitY=0.5;exitDx=0;exitDy=0;fontStyle=1;labelBackgroundColor=none;strokeColor=#A8201A;fontColor=default;" edge="1" parent="1" source="mA-dlY1LD11wk8f1rgGa-50" target="mA-dlY1LD11wk8f1rgGa-53">
          <mxGeometry width="50" height="50" relative="1" as="geometry">
            <mxPoint x="177.5" y="2420" as="sourcePoint" />
            <mxPoint x="227.5" y="2370" as="targetPoint" />
            <Array as="points">
              <mxPoint x="459" y="2180" />
            </Array>
          </mxGeometry>
        </mxCell>
        <mxCell id="mA-dlY1LD11wk8f1rgGa-56" value="" style="endArrow=classic;html=1;rounded=0;entryX=0.5;entryY=0;entryDx=0;entryDy=0;exitX=0.5;exitY=1;exitDx=0;exitDy=0;fontStyle=1;labelBackgroundColor=none;strokeColor=#A8201A;fontColor=default;" edge="1" parent="1" source="mA-dlY1LD11wk8f1rgGa-53" target="mA-dlY1LD11wk8f1rgGa-48">
          <mxGeometry width="50" height="50" relative="1" as="geometry">
            <mxPoint x="177.5" y="2420" as="sourcePoint" />
            <mxPoint x="459" y="2640" as="targetPoint" />
          </mxGeometry>
        </mxCell>
        <mxCell id="mA-dlY1LD11wk8f1rgGa-57" value="Yes/no?" style="rhombus;strokeWidth=2;whiteSpace=wrap;fontStyle=1;labelBackgroundColor=none;fillColor=#FAE5C7;strokeColor=#0F8B8D;fontColor=#143642;" vertex="1" parent="1">
          <mxGeometry x="861" y="1820" width="134" height="134" as="geometry" />
        </mxCell>
        <mxCell id="mA-dlY1LD11wk8f1rgGa-58" value="" style="endArrow=classic;html=1;rounded=0;entryX=0.5;entryY=0;entryDx=0;entryDy=0;exitX=0.5;exitY=1;exitDx=0;exitDy=0;fontStyle=1;labelBackgroundColor=none;strokeColor=#A8201A;fontColor=default;" edge="1" parent="1" source="mA-dlY1LD11wk8f1rgGa-57" target="mA-dlY1LD11wk8f1rgGa-51">
          <mxGeometry width="50" height="50" relative="1" as="geometry">
            <mxPoint x="177.5" y="2020" as="sourcePoint" />
            <mxPoint x="227.5" y="1970" as="targetPoint" />
            <Array as="points">
              <mxPoint x="928" y="2000" />
              <mxPoint x="459" y="2000" />
            </Array>
          </mxGeometry>
        </mxCell>
        <mxCell id="mA-dlY1LD11wk8f1rgGa-59" value="Display Game Window" style="whiteSpace=wrap;strokeWidth=2;fontStyle=1;labelBackgroundColor=none;fillColor=#FAE5C7;strokeColor=#0F8B8D;fontColor=#143642;" vertex="1" parent="1">
          <mxGeometry x="814.5" y="1664" width="218" height="54" as="geometry" />
        </mxCell>
        <mxCell id="mA-dlY1LD11wk8f1rgGa-61" value="Initialize Game" style="whiteSpace=wrap;strokeWidth=2;fontStyle=1;labelBackgroundColor=none;fillColor=#FAE5C7;strokeColor=#0F8B8D;fontColor=#143642;" vertex="1" parent="1">
          <mxGeometry x="374.5" y="1664" width="169" height="54" as="geometry" />
        </mxCell>
        <mxCell id="mA-dlY1LD11wk8f1rgGa-62" value="" style="curved=1;startArrow=none;endArrow=block;entryX=0.5;entryY=0;rounded=0;fontStyle=1;labelBackgroundColor=none;strokeColor=#A8201A;fontColor=default;" edge="1" parent="1" source="mA-dlY1LD11wk8f1rgGa-66" target="mA-dlY1LD11wk8f1rgGa-61">
          <mxGeometry relative="1" as="geometry">
            <Array as="points" />
            <mxPoint x="458.64999999999986" y="1614" as="sourcePoint" />
          </mxGeometry>
        </mxCell>
        <mxCell id="mA-dlY1LD11wk8f1rgGa-63" value="" style="endArrow=classic;html=1;rounded=0;entryX=0;entryY=0.5;entryDx=0;entryDy=0;exitX=1;exitY=0.5;exitDx=0;exitDy=0;fontStyle=1;labelBackgroundColor=none;strokeColor=#A8201A;fontColor=default;" edge="1" parent="1" source="mA-dlY1LD11wk8f1rgGa-61" target="mA-dlY1LD11wk8f1rgGa-59">
          <mxGeometry width="50" height="50" relative="1" as="geometry">
            <mxPoint x="177.5" y="1820" as="sourcePoint" />
            <mxPoint x="227.5" y="1770" as="targetPoint" />
          </mxGeometry>
        </mxCell>
        <mxCell id="mA-dlY1LD11wk8f1rgGa-66" value="" style="ellipse;whiteSpace=wrap;html=1;aspect=fixed;fillStyle=solid;fillColor=#000000;fontStyle=1;labelBackgroundColor=none;strokeColor=#0F8B8D;fontColor=#143642;" vertex="1" parent="1">
          <mxGeometry x="444" y="1580" width="30" height="30" as="geometry" />
        </mxCell>
        <mxCell id="mA-dlY1LD11wk8f1rgGa-68" value="User Input" style="whiteSpace=wrap;strokeWidth=2;fontStyle=1;labelBackgroundColor=none;fillColor=#FAE5C7;strokeColor=#0F8B8D;fontColor=#143642;" vertex="1" parent="1">
          <mxGeometry x="393" y="1860" width="138" height="54" as="geometry" />
        </mxCell>
        <mxCell id="mA-dlY1LD11wk8f1rgGa-69" value="" style="endArrow=classic;html=1;rounded=0;entryX=0;entryY=0.5;entryDx=0;entryDy=0;exitX=1;exitY=0.5;exitDx=0;exitDy=0;fontStyle=1;labelBackgroundColor=none;strokeColor=#A8201A;fontColor=default;" edge="1" parent="1" source="mA-dlY1LD11wk8f1rgGa-68" target="mA-dlY1LD11wk8f1rgGa-57">
          <mxGeometry width="50" height="50" relative="1" as="geometry">
            <mxPoint x="680" y="1860" as="sourcePoint" />
            <mxPoint x="730" y="1810" as="targetPoint" />
          </mxGeometry>
        </mxCell>
        <mxCell id="mA-dlY1LD11wk8f1rgGa-70" value="" style="endArrow=classic;html=1;rounded=0;entryX=0.5;entryY=0;entryDx=0;entryDy=0;exitX=0.5;exitY=1;exitDx=0;exitDy=0;fontStyle=1;labelBackgroundColor=none;strokeColor=#A8201A;fontColor=default;" edge="1" parent="1" source="mA-dlY1LD11wk8f1rgGa-59" target="mA-dlY1LD11wk8f1rgGa-68">
          <mxGeometry width="50" height="50" relative="1" as="geometry">
            <mxPoint x="730" y="1810" as="sourcePoint" />
            <mxPoint x="680" y="1860" as="targetPoint" />
            <Array as="points">
              <mxPoint x="924" y="1760" />
              <mxPoint x="462" y="1760" />
            </Array>
          </mxGeometry>
        </mxCell>
        <mxCell id="mA-dlY1LD11wk8f1rgGa-71" value="" style="curved=1;endArrow=classic;html=1;rounded=0;exitX=1;exitY=0.5;exitDx=0;exitDy=0;entryX=0.75;entryY=1;entryDx=0;entryDy=0;fontStyle=1;labelBackgroundColor=none;strokeColor=#A8201A;fontColor=default;" edge="1" parent="1" source="mA-dlY1LD11wk8f1rgGa-57" target="mA-dlY1LD11wk8f1rgGa-59">
          <mxGeometry width="50" height="50" relative="1" as="geometry">
            <mxPoint x="1032.5" y="1890" as="sourcePoint" />
            <mxPoint x="1082.5" y="1840" as="targetPoint" />
            <Array as="points">
              <mxPoint x="1082.5" y="1890" />
            </Array>
          </mxGeometry>
        </mxCell>
        <mxCell id="mA-dlY1LD11wk8f1rgGa-72" value="&lt;div style=&quot;text-align: center;&quot;&gt;&lt;span style=&quot;background-color: transparent; color: light-dark(rgb(0, 0, 0), rgb(255, 255, 255));&quot;&gt;No&lt;/span&gt;&lt;/div&gt;" style="text;whiteSpace=wrap;html=1;fontStyle=1;labelBackgroundColor=none;fontColor=#143642;" vertex="1" parent="1">
          <mxGeometry x="1012.5" y="1850" width="20" height="30" as="geometry" />
        </mxCell>
        <mxCell id="mA-dlY1LD11wk8f1rgGa-75" value="&lt;div style=&quot;text-align: center;&quot;&gt;&lt;span style=&quot;background-color: transparent; color: light-dark(rgb(0, 0, 0), rgb(255, 255, 255));&quot;&gt;Yes&lt;/span&gt;&lt;/div&gt;&lt;div style=&quot;text-align: center;&quot;&gt;&lt;span style=&quot;background-color: transparent; color: light-dark(rgb(0, 0, 0), rgb(255, 255, 255));&quot;&gt;&lt;br&gt;&lt;/span&gt;&lt;/div&gt;" style="text;whiteSpace=wrap;html=1;fontStyle=1;labelBackgroundColor=none;fontColor=#143642;" vertex="1" parent="1">
          <mxGeometry x="900" y="1970" width="20" height="30" as="geometry" />
        </mxCell>
        <mxCell id="mA-dlY1LD11wk8f1rgGa-76" value="&lt;div style=&quot;text-align: center;&quot;&gt;&lt;span style=&quot;background-color: transparent; color: light-dark(rgb(0, 0, 0), rgb(255, 255, 255));&quot;&gt;Yes&lt;/span&gt;&lt;/div&gt;&lt;div style=&quot;text-align: center;&quot;&gt;&lt;span style=&quot;background-color: transparent; color: light-dark(rgb(0, 0, 0), rgb(255, 255, 255));&quot;&gt;&lt;br&gt;&lt;/span&gt;&lt;/div&gt;" style="text;whiteSpace=wrap;html=1;fontStyle=1;labelBackgroundColor=none;fontColor=#143642;" vertex="1" parent="1">
          <mxGeometry x="830" y="2180" width="20" height="30" as="geometry" />
        </mxCell>
        <mxCell id="mA-dlY1LD11wk8f1rgGa-79" value="Food Eaten?" style="rhombus;strokeWidth=2;whiteSpace=wrap;fontStyle=1;labelBackgroundColor=none;fillColor=#FAE5C7;strokeColor=#0F8B8D;fontColor=#143642;" vertex="1" parent="1">
          <mxGeometry x="1048" y="2110" width="140" height="140" as="geometry" />
        </mxCell>
        <mxCell id="mA-dlY1LD11wk8f1rgGa-80" value="Grow Snake" style="whiteSpace=wrap;strokeWidth=2;fontStyle=1;labelBackgroundColor=none;fillColor=#FAE5C7;strokeColor=#0F8B8D;fontColor=#143642;" vertex="1" parent="1">
          <mxGeometry x="1070" y="2010" width="97" height="54" as="geometry" />
        </mxCell>
        <mxCell id="mA-dlY1LD11wk8f1rgGa-81" value="Spawn New Food" style="whiteSpace=wrap;strokeWidth=2;fontStyle=1;labelBackgroundColor=none;fillColor=#FAE5C7;strokeColor=#0F8B8D;fontColor=#143642;" vertex="1" parent="1">
          <mxGeometry x="1073" y="1920" width="90" height="54" as="geometry" />
        </mxCell>
        <mxCell id="mA-dlY1LD11wk8f1rgGa-82" value="Update Snake Position" style="whiteSpace=wrap;strokeWidth=2;fontStyle=1;labelBackgroundColor=none;fillColor=#FAE5C7;strokeColor=#0F8B8D;fontColor=#143642;" vertex="1" parent="1">
          <mxGeometry x="1275" y="2153.5" width="120" height="54" as="geometry" />
        </mxCell>
        <mxCell id="mA-dlY1LD11wk8f1rgGa-86" value="" style="endArrow=classic;html=1;rounded=0;exitX=1;exitY=0.5;exitDx=0;exitDy=0;entryX=0;entryY=0.5;entryDx=0;entryDy=0;fontStyle=1;labelBackgroundColor=none;strokeColor=#A8201A;fontColor=default;" edge="1" parent="1" source="mA-dlY1LD11wk8f1rgGa-79" target="mA-dlY1LD11wk8f1rgGa-82">
          <mxGeometry width="50" height="50" relative="1" as="geometry">
            <mxPoint x="1070" y="2320" as="sourcePoint" />
            <mxPoint x="1320" y="2130" as="targetPoint" />
          </mxGeometry>
        </mxCell>
        <mxCell id="mA-dlY1LD11wk8f1rgGa-87" value="" style="endArrow=classic;html=1;rounded=0;entryX=0.5;entryY=1;entryDx=0;entryDy=0;exitX=0.5;exitY=0;exitDx=0;exitDy=0;fontStyle=1;labelBackgroundColor=none;strokeColor=#A8201A;fontColor=default;" edge="1" parent="1" source="mA-dlY1LD11wk8f1rgGa-80" target="mA-dlY1LD11wk8f1rgGa-81">
          <mxGeometry width="50" height="50" relative="1" as="geometry">
            <mxPoint x="1070" y="2310" as="sourcePoint" />
            <mxPoint x="1120" y="2260" as="targetPoint" />
          </mxGeometry>
        </mxCell>
        <mxCell id="mA-dlY1LD11wk8f1rgGa-88" value="" style="endArrow=classic;html=1;rounded=0;entryX=0.5;entryY=1;entryDx=0;entryDy=0;exitX=0.5;exitY=0;exitDx=0;exitDy=0;fontStyle=1;labelBackgroundColor=none;strokeColor=#A8201A;fontColor=default;" edge="1" parent="1" source="mA-dlY1LD11wk8f1rgGa-79" target="mA-dlY1LD11wk8f1rgGa-80">
          <mxGeometry width="50" height="50" relative="1" as="geometry">
            <mxPoint x="1070" y="2310" as="sourcePoint" />
            <mxPoint x="1120" y="2260" as="targetPoint" />
          </mxGeometry>
        </mxCell>
        <mxCell id="mA-dlY1LD11wk8f1rgGa-89" value="" style="endArrow=classic;html=1;rounded=0;entryX=0;entryY=0.5;entryDx=0;entryDy=0;exitX=1;exitY=0.5;exitDx=0;exitDy=0;fontStyle=1;labelBackgroundColor=none;strokeColor=#A8201A;fontColor=default;" edge="1" parent="1" source="mA-dlY1LD11wk8f1rgGa-50" target="mA-dlY1LD11wk8f1rgGa-79">
          <mxGeometry width="50" height="50" relative="1" as="geometry">
            <mxPoint x="1070" y="2170" as="sourcePoint" />
            <mxPoint x="1120" y="2120" as="targetPoint" />
          </mxGeometry>
        </mxCell>
        <mxCell id="mA-dlY1LD11wk8f1rgGa-90" value="&lt;div style=&quot;text-align: center;&quot;&gt;&lt;span style=&quot;background-color: transparent; color: light-dark(rgb(0, 0, 0), rgb(255, 255, 255));&quot;&gt;No&lt;/span&gt;&lt;/div&gt;" style="text;whiteSpace=wrap;html=1;fontStyle=1;labelBackgroundColor=none;fontColor=#143642;" vertex="1" parent="1">
          <mxGeometry x="1032.5" y="2190" width="20" height="30" as="geometry" />
        </mxCell>
        <mxCell id="mA-dlY1LD11wk8f1rgGa-91" value="&lt;div style=&quot;text-align: center;&quot;&gt;&lt;span style=&quot;background-color: transparent; color: light-dark(rgb(0, 0, 0), rgb(255, 255, 255));&quot;&gt;No&lt;/span&gt;&lt;/div&gt;" style="text;whiteSpace=wrap;html=1;fontStyle=1;labelBackgroundColor=none;fontColor=#143642;" vertex="1" parent="1">
          <mxGeometry x="1240" y="2190" width="20" height="30" as="geometry" />
        </mxCell>
        <mxCell id="mA-dlY1LD11wk8f1rgGa-92" value="&lt;div style=&quot;text-align: center;&quot;&gt;&lt;span style=&quot;background-color: transparent; color: light-dark(rgb(0, 0, 0), rgb(255, 255, 255));&quot;&gt;Yes&lt;/span&gt;&lt;/div&gt;&lt;div style=&quot;text-align: center;&quot;&gt;&lt;span style=&quot;background-color: transparent; color: light-dark(rgb(0, 0, 0), rgb(255, 255, 255));&quot;&gt;&lt;br&gt;&lt;/span&gt;&lt;/div&gt;" style="text;whiteSpace=wrap;html=1;fontStyle=1;labelBackgroundColor=none;fontColor=#143642;" vertex="1" parent="1">
          <mxGeometry x="1130.5" y="2090" width="20" height="30" as="geometry" />
        </mxCell>
        <mxCell id="mA-dlY1LD11wk8f1rgGa-93" value="" style="curved=1;endArrow=classic;html=1;rounded=0;exitX=0.5;exitY=0;exitDx=0;exitDy=0;entryX=1;entryY=1;entryDx=0;entryDy=0;fontStyle=1;labelBackgroundColor=none;strokeColor=#A8201A;fontColor=default;" edge="1" parent="1" source="mA-dlY1LD11wk8f1rgGa-81" target="mA-dlY1LD11wk8f1rgGa-59">
          <mxGeometry width="50" height="50" relative="1" as="geometry">
            <mxPoint x="1350" y="1910" as="sourcePoint" />
            <mxPoint x="1400" y="1860" as="targetPoint" />
            <Array as="points">
              <mxPoint x="1130" y="1870" />
              <mxPoint x="1100" y="1780" />
            </Array>
          </mxGeometry>
        </mxCell>
        <mxCell id="mA-dlY1LD11wk8f1rgGa-94" value="" style="curved=1;endArrow=classic;html=1;rounded=0;exitX=0.5;exitY=0;exitDx=0;exitDy=0;entryX=1;entryY=0.5;entryDx=0;entryDy=0;fontStyle=1;labelBackgroundColor=none;strokeColor=#A8201A;fontColor=default;" edge="1" parent="1" source="mA-dlY1LD11wk8f1rgGa-82" target="mA-dlY1LD11wk8f1rgGa-59">
          <mxGeometry width="50" height="50" relative="1" as="geometry">
            <mxPoint x="1350" y="2040" as="sourcePoint" />
            <mxPoint x="1400" y="1990" as="targetPoint" />
            <Array as="points">
              <mxPoint x="1350" y="1990" />
            </Array>
          </mxGeometry>
        </mxCell>
        <mxCell id="mA-dlY1LD11wk8f1rgGa-95" value="&lt;div style=&quot;text-align: center;&quot;&gt;&lt;font style=&quot;font-size: 18px;&quot; color=&quot;#000000&quot;&gt;&lt;span style=&quot;text-wrap-mode: nowrap; background-color: rgb(187, 226, 236);&quot;&gt;&lt;span style=&quot;&quot;&gt;Player&lt;/span&gt;&lt;/span&gt;&lt;/font&gt;&lt;/div&gt;" style="text;whiteSpace=wrap;html=1;fontColor=#143642;fontStyle=1" vertex="1" parent="1">
          <mxGeometry x="443.5" y="1500" width="100" height="40" as="geometry" />
        </mxCell>
        <mxCell id="mA-dlY1LD11wk8f1rgGa-96" value="&lt;div style=&quot;text-align: center;&quot;&gt;&lt;font style=&quot;font-size: 18px;&quot; color=&quot;#000000&quot;&gt;&lt;span style=&quot;text-wrap-mode: nowrap;&quot;&gt;&lt;span style=&quot;&quot;&gt;Game System&lt;/span&gt;&lt;/span&gt;&lt;/font&gt;&lt;/div&gt;" style="text;whiteSpace=wrap;html=1;fontColor=#143642;labelBackgroundColor=#BBE2EC;fontStyle=1" vertex="1" parent="1">
          <mxGeometry x="972.5" y="1500" width="100" height="40" as="geometry" />
        </mxCell>
      </root>
    </mxGraphModel>
  </diagram>
</mxfile>
